<mxfile host="65bd71144e">
    <diagram id="beX-F4t_AgLPDQ07Una3" name="Doble bradcast">
        <mxGraphModel dx="1220" dy="611" grid="0" gridSize="10" guides="1" tooltips="1" connect="1" arrows="1" fold="1" page="1" pageScale="1" pageWidth="800" pageHeight="800" background="#ffffff" math="0" shadow="0">
            <root>
                <mxCell id="0"/>
                <mxCell id="1" parent="0"/>
                <mxCell id="5" value="proc1" style="shape=process;whiteSpace=wrap;html=1;backgroundOutline=1;strokeColor=#008787;fillColor=none;fontColor=#121212;fontSize=24;rounded=1;shadow=0;glass=0;strokeWidth=3;" parent="1" vertex="1">
                    <mxGeometry x="123" y="161" width="120" height="60" as="geometry"/>
                </mxCell>
                <mxCell id="29" value="" style="endArrow=classic;html=1;strokeColor=#009999;strokeWidth=2;entryX=0;entryY=0.5;entryDx=0;entryDy=0;exitX=1;exitY=0.5;exitDx=0;exitDy=0;" parent="1" source="5" target="50" edge="1">
                    <mxGeometry relative="1" as="geometry">
                        <mxPoint x="258" y="195" as="sourcePoint"/>
                        <mxPoint x="587" y="206" as="targetPoint"/>
                    </mxGeometry>
                </mxCell>
                <mxCell id="30" value="msg1" style="edgeLabel;resizable=0;html=1;align=center;verticalAlign=middle;strokeColor=#0A4761;fillColor=none;labelBackgroundColor=none;fontColor=#141414;fontSize=20;" parent="29" connectable="0" vertex="1">
                    <mxGeometry relative="1" as="geometry">
                        <mxPoint x="-1" y="19" as="offset"/>
                    </mxGeometry>
                </mxCell>
                <mxCell id="41" value="" style="endArrow=classic;html=1;strokeColor=#009999;strokeWidth=2;exitX=0.5;exitY=1;exitDx=0;exitDy=0;entryX=0.5;entryY=0;entryDx=0;entryDy=0;" parent="1" source="5" target="52" edge="1">
                    <mxGeometry relative="1" as="geometry">
                        <mxPoint x="263" y="211" as="sourcePoint"/>
                        <mxPoint x="183" y="505" as="targetPoint"/>
                    </mxGeometry>
                </mxCell>
                <mxCell id="42" value="msg1" style="edgeLabel;resizable=0;html=1;align=center;verticalAlign=middle;strokeColor=#0A4761;fillColor=none;labelBackgroundColor=none;fontColor=#141414;fontSize=20;" parent="41" connectable="0" vertex="1">
                    <mxGeometry relative="1" as="geometry">
                        <mxPoint x="-28" y="-12" as="offset"/>
                    </mxGeometry>
                </mxCell>
                <mxCell id="46" value="" style="endArrow=classic;html=1;strokeColor=#007FFF;strokeWidth=2;entryX=0.5;entryY=0;entryDx=0;entryDy=0;exitX=0.5;exitY=1;exitDx=0;exitDy=0;" parent="1" source="50" target="51" edge="1">
                    <mxGeometry relative="1" as="geometry">
                        <mxPoint x="647" y="221" as="sourcePoint"/>
                        <mxPoint x="647" y="505" as="targetPoint"/>
                    </mxGeometry>
                </mxCell>
                <mxCell id="47" value="msg2" style="edgeLabel;resizable=0;html=1;align=center;verticalAlign=middle;strokeColor=#0A4761;fillColor=none;labelBackgroundColor=none;fontColor=#141414;fontSize=20;" parent="46" connectable="0" vertex="1">
                    <mxGeometry relative="1" as="geometry">
                        <mxPoint x="30" y="-14" as="offset"/>
                    </mxGeometry>
                </mxCell>
                <mxCell id="48" value="" style="endArrow=classic;html=1;strokeColor=#007FFF;strokeWidth=2;entryX=1;entryY=0;entryDx=0;entryDy=0;exitX=0;exitY=1;exitDx=0;exitDy=0;" parent="1" source="50" target="52" edge="1">
                    <mxGeometry relative="1" as="geometry">
                        <mxPoint x="587" y="221" as="sourcePoint"/>
                        <mxPoint x="243" y="505" as="targetPoint"/>
                    </mxGeometry>
                </mxCell>
                <mxCell id="49" value="msg2" style="edgeLabel;resizable=0;html=1;align=center;verticalAlign=middle;strokeColor=#0A4761;fillColor=none;labelBackgroundColor=none;fontColor=#141414;fontSize=20;" parent="48" connectable="0" vertex="1">
                    <mxGeometry relative="1" as="geometry">
                        <mxPoint x="97" y="-41" as="offset"/>
                    </mxGeometry>
                </mxCell>
                <mxCell id="MIMZC9BzyGNS6zfTSyI0-52" style="edgeStyle=none;html=1;exitX=0;exitY=0.5;exitDx=0;exitDy=0;" edge="1" parent="1" source="50">
                    <mxGeometry relative="1" as="geometry">
                        <mxPoint x="237.5999755859375" y="188.79998779296875" as="targetPoint"/>
                    </mxGeometry>
                </mxCell>
                <mxCell id="50" value="proc2" style="shape=process;whiteSpace=wrap;html=1;backgroundOutline=1;strokeColor=#10729C;fillColor=none;fontColor=#121212;fontSize=24;strokeWidth=4;rounded=1;" parent="1" vertex="1">
                    <mxGeometry x="587" y="161" width="120" height="60" as="geometry"/>
                </mxCell>
                <mxCell id="MIMZC9BzyGNS6zfTSyI0-53" style="edgeStyle=none;html=1;entryX=0.5;entryY=1;entryDx=0;entryDy=0;" edge="1" parent="1" target="50">
                    <mxGeometry relative="1" as="geometry">
                        <mxPoint x="647" y="506" as="sourcePoint"/>
                    </mxGeometry>
                </mxCell>
                <mxCell id="MIMZC9BzyGNS6zfTSyI0-57" style="edgeStyle=none;html=1;exitX=0;exitY=0.5;exitDx=0;exitDy=0;" edge="1" parent="1" source="51">
                    <mxGeometry relative="1" as="geometry">
                        <mxPoint x="241.5999755859375" y="542.3999633789062" as="targetPoint"/>
                    </mxGeometry>
                </mxCell>
                <mxCell id="51" value="proc4" style="shape=process;whiteSpace=wrap;html=1;backgroundOutline=1;strokeColor=#0A4761;fillColor=none;fontColor=#121212;fontSize=24;" parent="1" vertex="1">
                    <mxGeometry x="587" y="511" width="120" height="60" as="geometry"/>
                </mxCell>
                <mxCell id="MIMZC9BzyGNS6zfTSyI0-54" style="edgeStyle=none;html=1;exitX=1;exitY=0;exitDx=0;exitDy=0;entryX=0;entryY=1;entryDx=0;entryDy=0;" edge="1" parent="1" source="52" target="50">
                    <mxGeometry relative="1" as="geometry"/>
                </mxCell>
                <mxCell id="MIMZC9BzyGNS6zfTSyI0-55" style="edgeStyle=none;html=1;exitX=0.5;exitY=0;exitDx=0;exitDy=0;entryX=0.5;entryY=1;entryDx=0;entryDy=0;" edge="1" parent="1" source="52" target="5">
                    <mxGeometry relative="1" as="geometry"/>
                </mxCell>
                <mxCell id="MIMZC9BzyGNS6zfTSyI0-56" style="edgeStyle=none;html=1;exitX=1;exitY=0.5;exitDx=0;exitDy=0;" edge="1" parent="1" source="52" target="51">
                    <mxGeometry relative="1" as="geometry"/>
                </mxCell>
                <mxCell id="52" value="proc3" style="shape=process;whiteSpace=wrap;html=1;backgroundOutline=1;strokeColor=#0A4761;fillColor=none;fontColor=#121212;fontSize=24;" parent="1" vertex="1">
                    <mxGeometry x="123" y="511" width="120" height="60" as="geometry"/>
                </mxCell>
            </root>
        </mxGraphModel>
    </diagram>
</mxfile>